<svg width="565" height="370" viewBox="0 0 565 370" fill="none" xmlns="http://www.w3.org/2000/svg">
<path d="M453.38 20.99C456.07 21.5918 458.443 23.1653 460.044 25.4088C461.646 27.6523 462.363 30.4079 462.058 33.1474C461.753 35.8869 460.448 38.4175 458.393 40.2541C456.337 42.0907 453.676 43.1041 450.92 43.1H414.74C408.56 43.1 403.55 38.7 403.55 32.52C403.549 30.0033 404.396 27.5596 405.954 25.5836C407.513 23.6076 409.692 22.2147 412.14 21.63C411.682 20.275 411.554 18.8304 411.766 17.416C411.978 16.0016 412.524 14.658 413.359 13.4968C414.194 12.3355 415.293 11.3898 416.567 10.7382C417.84 10.0867 419.25 9.74789 420.68 9.74999C423.053 9.74676 425.332 10.6812 427.02 12.35V12.35C428.37 9.48949 430.648 7.17026 433.484 5.77009C436.32 4.36992 439.547 3.97134 442.638 4.63928C445.73 5.30721 448.504 7.00231 450.509 9.44842C452.514 11.8945 453.632 14.9475 453.68 18.11C453.635 19.0749 453.534 20.0364 453.38 20.99V20.99Z" stroke="white" stroke-width="3" stroke-linecap="round" stroke-linejoin="round"/>
<path d="M419.06 50.13C421.051 51.9949 422.322 54.5015 422.65 57.21C422.602 58.1281 422.203 58.9925 421.536 59.6252C420.869 60.2579 419.984 60.6106 419.065 60.6106C418.146 60.6106 417.261 60.2579 416.594 59.6252C415.927 58.9925 415.528 58.1281 415.48 57.21C415.806 54.5031 417.073 51.9969 419.06 50.13V50.13Z" fill="white"/>
<path d="M446.73 50.13C448.721 51.9949 449.992 54.5015 450.32 57.21C450.272 58.1281 449.873 58.9925 449.206 59.6252C448.539 60.2579 447.654 60.6106 446.735 60.6106C445.816 60.6106 444.931 60.2579 444.264 59.6252C443.597 58.9925 443.199 58.1281 443.15 57.21C443.476 54.5031 444.743 51.9969 446.73 50.13V50.13Z" fill="white"/>
<path d="M432.9 53.5C434.887 55.3628 436.154 57.8659 436.48 60.57C436.506 61.0567 436.432 61.5436 436.263 62.0009C436.095 62.4582 435.835 62.8764 435.5 63.23C435.164 63.5837 434.76 63.8653 434.312 64.0577C433.865 64.2502 433.382 64.3494 432.895 64.3494C432.408 64.3494 431.925 64.2502 431.478 64.0577C431.03 63.8653 430.626 63.5837 430.29 63.23C429.955 62.8764 429.695 62.4582 429.526 62.0009C429.358 61.5436 429.284 61.0567 429.31 60.57C429.637 57.8641 430.908 55.3602 432.9 53.5V53.5Z" fill="white"/>
<path d="M53.5 30.06C56.2883 30.684 58.7483 32.3151 60.4083 34.6408C62.0683 36.9664 62.8116 39.8229 62.4956 42.6627C62.1797 45.5024 60.8268 48.1257 58.6962 50.0296C56.5656 51.9335 53.8073 52.9841 50.95 52.98H13.41C7.01 52.98 1.81 48.42 1.81 41.98C1.81038 39.3706 2.68976 36.8375 4.30627 34.7892C5.92279 32.7409 8.18219 31.2968 10.72 30.69C10.0557 28.6977 10.0814 26.5397 10.7932 24.5638C11.5049 22.588 12.861 20.9092 14.6432 19.7981C16.4253 18.687 18.5297 18.2083 20.6171 18.439C22.7045 18.6697 24.6535 19.5965 26.15 21.07V21.07C27.5193 18.0615 29.8774 15.6125 32.8319 14.1304C35.7865 12.6483 39.1594 12.2224 42.3896 12.9237C45.6198 13.6249 48.5126 15.4109 50.5867 17.9846C52.6609 20.5583 53.7913 23.7646 53.79 27.07C53.7436 28.0751 53.6401 29.0767 53.48 30.07L53.5 30.06Z" stroke="white" stroke-width="3" stroke-linecap="round" stroke-linejoin="round"/>
<path d="M149.37 32.17C151.906 32.7326 154.144 34.2126 155.655 36.3255C157.166 38.4385 157.842 41.0353 157.555 43.6168C157.267 46.1983 156.035 48.5824 154.096 50.3107C152.157 52.0391 149.647 52.9897 147.05 52.98H113C107.18 52.98 102.47 48.84 102.47 43.03C102.469 40.6604 103.266 38.3596 104.734 36.4996C106.202 34.6396 108.255 33.3291 110.56 32.78C110.262 31.9076 110.11 30.992 110.11 30.07C110.121 28.402 110.623 26.7742 111.554 25.3899C112.484 24.0055 113.802 22.9259 115.342 22.2859C116.882 21.6459 118.577 21.4738 120.215 21.791C121.852 22.1083 123.36 22.901 124.55 24.07V24.07C125.785 21.3296 127.923 19.0961 130.607 17.7425C133.291 16.3889 136.358 15.9971 139.296 16.6327C142.234 17.2683 144.865 18.8927 146.75 21.2346C148.634 23.5765 149.658 26.4941 149.65 29.5C149.608 30.4079 149.514 31.3126 149.37 32.21V32.17Z" stroke="white" stroke-width="3" stroke-linecap="round" stroke-linejoin="round"/>
<path d="M140.77 17.04C142.073 15.5836 143.681 14.4333 145.481 13.6715C147.28 12.9098 149.226 12.5555 151.178 12.634C153.131 12.7126 155.042 13.2219 156.774 14.1257C158.507 15.0294 160.018 16.3052 161.199 17.8615C162.381 19.4179 163.204 21.2163 163.608 23.1279C164.013 25.0395 163.99 27.017 163.541 28.9188C163.092 30.8205 162.228 32.5993 161.011 34.1278C159.793 35.6563 158.253 36.8967 156.5 37.76" stroke="white" stroke-width="3" stroke-linecap="round" stroke-linejoin="round"/>
<path d="M340.5 35.94C342.527 36.4469 344.301 37.6721 345.494 39.388C346.686 41.104 347.215 43.1942 346.983 45.2707C346.751 47.3473 345.773 49.2691 344.232 50.6795C342.69 52.0899 340.689 52.8931 338.6 52.94H310.73C305.97 52.94 302.11 49.55 302.11 44.79C302.109 42.8507 302.762 40.9677 303.963 39.4453C305.164 37.9228 306.844 36.8499 308.73 36.4C308.391 35.3558 308.303 34.2465 308.472 33.1618C308.641 32.077 309.063 31.0473 309.703 30.1556C310.344 29.264 311.185 28.5355 312.159 28.0291C313.133 27.5226 314.212 27.2523 315.31 27.24C317.137 27.2342 318.892 27.9535 320.19 29.24C321.209 27.0065 322.96 25.1884 325.154 24.0875C327.348 22.9865 329.853 22.6689 332.252 23.1873C334.652 23.7057 336.802 25.029 338.346 26.9376C339.89 28.8461 340.734 31.2252 340.74 33.68C340.705 34.4237 340.628 35.1649 340.51 35.9L340.5 35.94Z" stroke="white" stroke-width="3" stroke-linecap="round" stroke-linejoin="round"/>
<path d="M333.5 23.55C334.571 22.3651 335.89 21.4311 337.363 20.8148C338.836 20.1985 340.428 19.915 342.023 19.9846C343.619 20.0542 345.179 20.4751 346.593 21.2174C348.007 21.9596 349.24 23.0049 350.203 24.2785C351.167 25.5522 351.837 27.0228 352.167 28.5854C352.496 30.1481 352.477 31.7642 352.11 33.3184C351.743 34.8727 351.037 36.3267 350.043 37.5768C349.049 38.8268 347.792 39.8421 346.36 40.55" stroke="white" stroke-width="3" stroke-linecap="round" stroke-linejoin="round"/>
<path d="M249.44 33.8C249.442 37.0757 248.472 40.2784 246.654 43.003C244.836 45.7276 242.25 47.8516 239.224 49.1066C236.198 50.3615 232.868 50.6909 229.655 50.053C226.442 49.4152 223.491 47.8388 221.174 45.5232C218.857 43.2077 217.279 40.257 216.639 37.0444C215.999 33.8318 216.326 30.5016 217.58 27.4751C218.833 24.4485 220.955 21.8616 223.679 20.0416C226.402 18.2215 229.604 17.25 232.88 17.25C237.27 17.25 241.481 18.9933 244.586 22.0968C247.691 25.2002 249.437 29.4098 249.44 33.8V33.8Z" stroke="white" stroke-width="3" stroke-linecap="round" stroke-linejoin="round"/>
<path d="M232.88 9.23999V4.01999" stroke="white" stroke-width="3" stroke-linecap="round" stroke-linejoin="round"/>
<path d="M203.17 33.8H208.38" stroke="white" stroke-width="3" stroke-linecap="round" stroke-linejoin="round"/>
<path d="M250.2 51.13L254.3 55.23" stroke="white" stroke-width="3" stroke-linecap="round" stroke-linejoin="round"/>
<path d="M211.46 12.38L215.56 16.48" stroke="white" stroke-width="3" stroke-linecap="round" stroke-linejoin="round"/>
<path d="M215.56 51.13L211.46 55.23" stroke="white" stroke-width="3" stroke-linecap="round" stroke-linejoin="round"/>
<path d="M254.3 12.38L250.2 16.48" stroke="white" stroke-width="3" stroke-linecap="round" stroke-linejoin="round"/>
<path d="M250.2 16.48L254.3 12.38" stroke="white" stroke-width="3" stroke-linecap="round" stroke-linejoin="round"/>
<path d="M211.46 55.23L215.56 51.13" stroke="white" stroke-width="3" stroke-linecap="round" stroke-linejoin="round"/>
<path d="M250.15 51.18L254.25 55.28" stroke="white" stroke-width="3" stroke-linecap="round" stroke-linejoin="round"/>
<path d="M211.41 12.43L215.51 16.53" stroke="white" stroke-width="3" stroke-linecap="round" stroke-linejoin="round"/>
<path d="M232.83 58.35V63.56" stroke="white" stroke-width="3" stroke-linecap="round" stroke-linejoin="round"/>
<path d="M232.83 4.14999V9.35999" stroke="white" stroke-width="3" stroke-linecap="round" stroke-linejoin="round"/>
<path d="M208.33 33.85H203.12" stroke="white" stroke-width="3" stroke-linecap="round" stroke-linejoin="round"/>
<path d="M262.54 33.85H257.32" stroke="white" stroke-width="3" stroke-linecap="round" stroke-linejoin="round"/>
<path d="M341.59 12.61L341.56 8.39" stroke="white" stroke-width="3" stroke-linecap="round" stroke-linejoin="round"/>
<path d="M359.35 32.42L363.57 32.39" stroke="white" stroke-width="3" stroke-linecap="round" stroke-linejoin="round"/>
<path d="M355.02 17.97L357.98 14.98" stroke="white" stroke-width="3" stroke-linecap="round" stroke-linejoin="round"/>
<path d="M327.11 17.97L324.15 14.98" stroke="white" stroke-width="3" stroke-linecap="round" stroke-linejoin="round"/>
<path d="M356.33 47.66L353.37 44.66" stroke="white" stroke-width="3" stroke-linecap="round" stroke-linejoin="round"/>
<path d="M528.28 43.74L520.91 52.95L527.98 53.04L519.8 63.82L544.08 50.38L535.56 50.34L540.07 43.74H528.28Z" fill="white" stroke="white" stroke-linecap="round" stroke-linejoin="round"/>
<path d="M554.03 19.63C556.794 20.2613 559.23 21.8876 560.873 24.1989C562.515 26.5102 563.251 29.345 562.938 32.1633C562.625 34.9817 561.287 37.5865 559.178 39.4817C557.068 41.3768 554.336 42.4298 551.5 42.44H514.16C507.79 42.44 502.62 37.91 502.62 31.53C502.619 28.9305 503.496 26.4068 505.107 24.3671C506.719 22.3274 508.971 20.8909 511.5 20.29C510.838 18.3078 510.862 16.1602 511.57 14.1936C512.277 12.2271 513.627 10.5562 515.4 9.4505C517.174 8.34479 519.268 7.86869 521.345 8.09901C523.423 8.32933 525.362 9.25263 526.85 10.72V10.72C528.21 7.7263 530.554 5.28834 533.492 3.8114C536.43 2.33446 539.785 1.90751 542.999 2.60153C546.213 3.29554 549.093 5.06872 551.16 7.62628C553.227 10.1838 554.356 13.3717 554.36 16.66C554.314 17.6651 554.211 18.6668 554.05 19.66L554.03 19.63Z" stroke="white" stroke-width="3" stroke-linecap="round" stroke-linejoin="round"/>
<path d="M314.08 147.73C307.9 147.73 302.89 143.34 302.89 137.15C302.891 134.634 303.741 132.191 305.301 130.217C306.862 128.243 309.042 126.852 311.49 126.27C311.175 125.343 311.016 124.369 311.02 123.39C311.018 121.612 311.542 119.873 312.527 118.392C313.512 116.912 314.914 115.756 316.555 115.072C318.196 114.387 320.003 114.204 321.748 114.545C323.493 114.887 325.098 115.737 326.36 116.99V116.99C327.709 114.13 329.987 111.811 332.822 110.411C335.657 109.011 338.882 108.611 341.973 109.278C345.064 109.945 347.839 111.638 349.845 114.082C351.85 116.527 352.97 119.578 353.02 122.74C352.975 123.705 352.874 124.666 352.72 125.62C355.41 126.222 357.783 127.795 359.384 130.039C360.986 132.282 361.703 135.038 361.398 137.777C361.093 140.517 359.788 143.048 357.733 144.884C355.677 146.721 353.016 147.734 350.26 147.73" stroke="white" stroke-width="3" stroke-linecap="round" stroke-linejoin="round"/>
<path d="M332.17 135.36V160.11" stroke="white" stroke-width="2" stroke-linecap="round" stroke-linejoin="round"/>
<path d="M344.55 147.73H319.8" stroke="white" stroke-width="2" stroke-linecap="round" stroke-linejoin="round"/>
<path d="M321.8 144.15L325.38 147.73L321.8 151.32" stroke="white" stroke-width="2" stroke-linecap="round" stroke-linejoin="round"/>
<path d="M342.55 151.31L338.96 147.73L342.55 144.15" stroke="white" stroke-width="2" stroke-linecap="round" stroke-linejoin="round"/>
<path d="M328.59 158.11L332.17 154.52L335.76 158.11" stroke="white" stroke-width="2" stroke-linecap="round" stroke-linejoin="round"/>
<path d="M335.76 137.36L332.17 140.94L328.59 137.36" stroke="white" stroke-width="2" stroke-linecap="round" stroke-linejoin="round"/>
<path d="M340.92 138.98L323.42 156.48" stroke="white" stroke-width="2" stroke-linecap="round" stroke-linejoin="round"/>
<path d="M340.92 156.48L323.42 138.98" stroke="white" stroke-width="2" stroke-linecap="round" stroke-linejoin="round"/>
<path d="M239.32 138.11C236.916 138.115 234.563 137.415 232.552 136.096C230.542 134.777 228.963 132.897 228.01 130.69C227.057 128.482 226.773 126.043 227.193 123.676C227.612 121.308 228.717 119.116 230.37 117.37C227.203 117.748 224.212 119.033 221.758 121.07C219.304 123.108 217.491 125.812 216.537 128.856C215.583 131.899 215.53 135.154 216.382 138.228C217.235 141.302 218.958 144.063 221.344 146.181C223.729 148.298 226.676 149.681 229.829 150.163C232.982 150.646 236.207 150.206 239.117 148.898C242.026 147.59 244.495 145.469 246.227 142.79C247.96 140.112 248.881 136.99 248.88 133.8C248.88 133.73 248.88 133.65 248.88 133.57C247.726 134.992 246.268 136.137 244.614 136.923C242.96 137.708 241.151 138.114 239.32 138.11V138.11Z" stroke="white" stroke-width="3" stroke-linecap="round" stroke-linejoin="round"/>
<path d="M446.39 131.5C448.751 132.042 450.83 133.432 452.232 135.408C453.634 137.383 454.26 139.805 453.992 142.212C453.724 144.62 452.58 146.844 450.778 148.463C448.976 150.081 446.642 150.981 444.22 150.99H412.33C406.88 150.99 402.47 147.12 402.47 141.67C402.47 139.452 403.216 137.298 404.59 135.557C405.963 133.815 407.883 132.587 410.04 132.07C409.766 131.255 409.627 130.4 409.63 129.54C409.63 127.974 410.093 126.442 410.961 125.138C411.829 123.835 413.063 122.817 414.508 122.213C415.954 121.609 417.545 121.446 419.083 121.744C420.621 122.043 422.036 122.789 423.15 123.89V123.89C424.312 121.331 426.314 119.247 428.825 117.985C431.335 116.723 434.202 116.358 436.949 116.952C439.695 117.546 442.156 119.062 443.921 121.248C445.686 123.435 446.649 126.16 446.65 128.97C446.61 129.821 446.524 130.669 446.39 131.51V131.5Z" stroke="white" stroke-width="3" stroke-linecap="round" stroke-linejoin="round"/>
<path d="M448.33 129.4C455.41 129.4 462.14 123.66 462.14 116.59C462.14 116.53 462.14 116.47 462.14 116.41C461.337 117.415 460.339 118.247 459.206 118.856C458.072 119.465 456.827 119.838 455.546 119.952C454.264 120.066 452.973 119.92 451.75 119.521C450.527 119.122 449.397 118.479 448.429 117.632C447.461 116.784 446.675 115.75 446.119 114.59C445.562 113.43 445.246 112.169 445.19 110.884C445.134 109.599 445.339 108.316 445.793 107.112C446.246 105.908 446.94 104.809 447.83 103.88C441.47 104.63 436.54 109.03 436.54 115.59" stroke="white" stroke-width="3" stroke-linecap="round" stroke-linejoin="round"/>
<path d="M553.38 122.99C556.07 123.592 558.443 125.165 560.044 127.409C561.646 129.652 562.363 132.408 562.058 135.147C561.753 137.887 560.448 140.418 558.393 142.254C556.337 144.091 553.676 145.104 550.92 145.1H514.74C508.56 145.1 503.55 140.7 503.55 134.52C503.549 132.003 504.396 129.56 505.954 127.584C507.513 125.608 509.692 124.215 512.14 123.63C511.682 122.275 511.554 120.83 511.766 119.416C511.978 118.002 512.524 116.658 513.359 115.497C514.194 114.335 515.293 113.39 516.567 112.738C517.84 112.087 519.25 111.748 520.68 111.75C523.053 111.747 525.332 112.681 527.02 114.35V114.35C528.37 111.489 530.648 109.17 533.484 107.77C536.32 106.37 539.547 105.971 542.638 106.639C545.73 107.307 548.504 109.002 550.509 111.448C552.514 113.895 553.632 116.947 553.68 120.11C553.635 121.075 553.534 122.036 553.38 122.99V122.99Z" stroke="white" stroke-width="3" stroke-linecap="round" stroke-linejoin="round"/>
<path d="M521.55 152.89C521.55 153.268 521.438 153.638 521.227 153.952C521.017 154.267 520.718 154.511 520.369 154.656C520.019 154.8 519.634 154.837 519.264 154.763C518.893 154.688 518.553 154.505 518.286 154.237C518.019 153.969 517.838 153.628 517.766 153.256C517.693 152.885 517.732 152.501 517.878 152.152C518.024 151.803 518.271 151.506 518.586 151.297C518.902 151.088 519.272 150.978 519.65 150.98C520.155 150.983 520.638 151.185 520.994 151.543C521.35 151.901 521.55 152.385 521.55 152.89V152.89Z" fill="white" stroke="white" stroke-linecap="round" stroke-linejoin="round"/>
<path d="M535.35 152.89C535.35 153.268 535.238 153.638 535.027 153.952C534.817 154.267 534.518 154.511 534.169 154.656C533.819 154.8 533.434 154.837 533.064 154.763C532.693 154.688 532.353 154.505 532.086 154.237C531.819 153.969 531.638 153.628 531.566 153.256C531.493 152.885 531.532 152.501 531.678 152.152C531.824 151.803 532.071 151.506 532.386 151.297C532.702 151.088 533.072 150.978 533.45 150.98C533.955 150.983 534.438 151.185 534.794 151.543C535.15 151.901 535.35 152.385 535.35 152.89V152.89Z" fill="white" stroke="white" stroke-linecap="round" stroke-linejoin="round"/>
<path d="M549.15 152.89C549.15 153.268 549.038 153.637 548.828 153.951C548.618 154.265 548.32 154.51 547.971 154.655C547.622 154.799 547.238 154.837 546.867 154.763C546.497 154.69 546.157 154.508 545.889 154.241C545.622 153.973 545.44 153.633 545.367 153.263C545.293 152.892 545.331 152.508 545.475 152.159C545.62 151.81 545.865 151.512 546.179 151.302C546.493 151.092 546.862 150.98 547.24 150.98C547.747 150.98 548.232 151.181 548.591 151.539C548.949 151.898 549.15 152.383 549.15 152.89Z" fill="white" stroke="white" stroke-linecap="round" stroke-linejoin="round"/>
<path d="M528.55 159.89C528.55 160.268 528.438 160.638 528.227 160.952C528.017 161.266 527.718 161.511 527.369 161.656C527.019 161.8 526.634 161.837 526.264 161.763C525.893 161.688 525.553 161.505 525.286 161.237C525.019 160.969 524.838 160.628 524.766 160.256C524.693 159.885 524.732 159.501 524.878 159.152C525.024 158.803 525.271 158.506 525.586 158.297C525.902 158.088 526.272 157.978 526.65 157.98C527.155 157.983 527.638 158.185 527.994 158.543C528.35 158.901 528.55 159.385 528.55 159.89V159.89Z" fill="white" stroke="white" stroke-linecap="round" stroke-linejoin="round"/>
<path d="M542.35 159.89C542.35 160.268 542.238 160.638 542.027 160.952C541.817 161.266 541.518 161.511 541.169 161.656C540.819 161.8 540.434 161.837 540.064 161.763C539.693 161.688 539.353 161.505 539.086 161.237C538.819 160.969 538.638 160.628 538.566 160.256C538.493 159.885 538.532 159.501 538.678 159.152C538.824 158.803 539.071 158.506 539.386 158.297C539.702 158.088 540.072 157.978 540.45 157.98C540.955 157.983 541.438 158.185 541.794 158.543C542.15 158.901 542.35 159.385 542.35 159.89V159.89Z" fill="white" stroke="white" stroke-linecap="round" stroke-linejoin="round"/>
<path d="M154.14 121.06C156.928 121.684 159.388 123.315 161.048 125.641C162.708 127.966 163.452 130.823 163.136 133.663C162.82 136.502 161.467 139.126 159.336 141.03C157.206 142.934 154.447 143.984 151.59 143.98H114.07C107.66 143.98 102.47 139.42 102.47 132.98C102.47 130.371 103.35 127.838 104.966 125.789C106.583 123.741 108.842 122.297 111.38 121.69C111.05 120.724 110.885 119.71 110.89 118.69C110.89 116.847 111.435 115.045 112.457 113.511C113.479 111.976 114.932 110.779 116.633 110.069C118.334 109.359 120.207 109.168 122.016 109.521C123.825 109.873 125.49 110.753 126.8 112.05V112.05C128.166 109.036 130.524 106.581 133.481 105.094C136.437 103.608 139.814 103.18 143.049 103.881C146.283 104.583 149.179 106.372 151.253 108.951C153.328 111.529 154.456 114.741 154.45 118.05C154.404 119.055 154.3 120.057 154.14 121.05V121.06Z" stroke="white" stroke-width="3" stroke-linecap="round" stroke-linejoin="round"/>
<path d="M328.14 246.09L321.89 253.9L327.89 253.98L320.95 263.13L341.55 251.72L334.32 251.69L338.15 246.09H328.14Z" fill="white" stroke="white" stroke-linecap="round" stroke-linejoin="round"/>
<path d="M353.38 221.88C356.145 222.512 358.581 224.139 360.224 226.451C361.867 228.763 362.601 231.599 362.287 234.418C361.973 237.237 360.633 239.842 358.522 241.737C356.411 243.631 353.676 244.682 350.84 244.69H313.5C307.12 244.69 301.95 240.16 301.95 233.78C301.94 231.174 302.812 228.641 304.425 226.593C306.037 224.545 308.294 223.102 310.83 222.5C310.498 221.535 310.332 220.521 310.34 219.5C310.342 217.667 310.886 215.876 311.903 214.351C312.92 212.826 314.365 211.636 316.057 210.93C317.748 210.224 319.61 210.033 321.409 210.382C323.209 210.73 324.865 211.603 326.17 212.89V212.89C327.526 209.893 329.869 207.451 332.807 205.971C335.746 204.491 339.102 204.063 342.318 204.757C345.534 205.452 348.415 207.228 350.48 209.788C352.546 212.349 353.672 215.54 353.67 218.83C353.626 219.835 353.526 220.836 353.37 221.83L353.38 221.88Z" stroke="white" stroke-width="3" stroke-linecap="round" stroke-linejoin="round"/>
<path d="M316.55 251.89C316.55 252.268 316.438 252.638 316.227 252.952C316.017 253.266 315.718 253.511 315.369 253.656C315.019 253.8 314.634 253.837 314.264 253.763C313.893 253.688 313.553 253.505 313.286 253.237C313.019 252.969 312.838 252.628 312.766 252.256C312.693 251.885 312.732 251.501 312.878 251.152C313.024 250.803 313.271 250.506 313.586 250.297C313.902 250.088 314.272 249.978 314.65 249.98C315.155 249.983 315.638 250.185 315.994 250.543C316.35 250.901 316.55 251.385 316.55 251.89V251.89Z" fill="white" stroke="white" stroke-linecap="round" stroke-linejoin="round"/>
<path d="M351.15 251.89C351.15 252.268 351.038 252.637 350.828 252.951C350.618 253.265 350.32 253.51 349.971 253.655C349.622 253.799 349.238 253.837 348.867 253.763C348.497 253.69 348.157 253.508 347.889 253.241C347.622 252.973 347.44 252.633 347.367 252.263C347.293 251.892 347.331 251.508 347.475 251.159C347.62 250.81 347.865 250.512 348.179 250.302C348.493 250.092 348.862 249.98 349.24 249.98C349.747 249.98 350.232 250.181 350.591 250.539C350.949 250.898 351.15 251.383 351.15 251.89V251.89Z" fill="white" stroke="white" stroke-linecap="round" stroke-linejoin="round"/>
<path d="M341.15 260.89C341.15 261.268 341.038 261.637 340.828 261.951C340.618 262.265 340.32 262.51 339.971 262.655C339.622 262.799 339.238 262.837 338.867 262.763C338.497 262.69 338.157 262.508 337.889 262.241C337.622 261.973 337.44 261.633 337.367 261.263C337.293 260.892 337.331 260.508 337.475 260.159C337.62 259.81 337.865 259.512 338.179 259.302C338.493 259.092 338.862 258.98 339.24 258.98C339.747 258.98 340.232 259.181 340.591 259.539C340.949 259.898 341.15 260.383 341.15 260.89V260.89Z" fill="white" stroke="white" stroke-linecap="round" stroke-linejoin="round"/>
<path d="M115.74 152.52L121.2 157.98" stroke="white" stroke-width="3" stroke-linecap="round" stroke-linejoin="round"/>
<path d="M115.74 158.11L121.26 152.59" stroke="white" stroke-width="3" stroke-linecap="round" stroke-linejoin="round"/>
<path d="M143.71 152.46L149.17 157.92" stroke="white" stroke-width="3" stroke-linecap="round" stroke-linejoin="round"/>
<path d="M143.71 158.04L149.23 152.52" stroke="white" stroke-width="3" stroke-linecap="round" stroke-linejoin="round"/>
<path d="M129.41 158.32L134.87 163.77" stroke="white" stroke-width="3" stroke-linecap="round" stroke-linejoin="round"/>
<path d="M129.41 163.9L134.93 158.38" stroke="white" stroke-width="3" stroke-linecap="round" stroke-linejoin="round"/>
<path d="M148.35 225.08C150.885 225.642 153.123 227.122 154.634 229.234C156.144 231.345 156.821 233.941 156.535 236.522C156.249 239.103 155.019 241.486 153.081 243.216C151.144 244.945 148.637 245.897 146.04 245.89H111.99C106.17 245.89 101.45 241.75 101.45 235.89C101.458 233.534 102.255 231.249 103.714 229.4C105.173 227.551 107.211 226.245 109.5 225.69C109.205 224.817 109.057 223.901 109.06 222.98C109.066 221.31 109.566 219.679 110.495 218.292C111.425 216.904 112.744 215.822 114.286 215.181C115.828 214.541 117.526 214.369 119.165 214.689C120.804 215.009 122.312 215.806 123.5 216.98V216.98C124.738 214.246 126.876 212.019 129.556 210.67C132.237 209.321 135.299 208.93 138.232 209.564C141.166 210.198 143.794 211.817 145.678 214.153C147.563 216.488 148.59 219.399 148.59 222.4C148.548 223.308 148.454 224.213 148.31 225.11L148.35 225.08Z" stroke="white" stroke-width="3" stroke-linecap="round" stroke-linejoin="round"/>
<path d="M139.76 209.95C141.063 208.496 142.672 207.347 144.47 206.587C146.269 205.827 148.213 205.474 150.164 205.553C152.115 205.632 154.025 206.141 155.756 207.044C157.488 207.948 158.998 209.222 160.179 210.777C161.36 212.332 162.183 214.129 162.589 216.039C162.995 217.949 162.973 219.925 162.526 221.826C162.079 223.727 161.217 225.505 160.003 227.034C158.788 228.563 157.25 229.805 155.5 230.67" stroke="white" stroke-width="3" stroke-linecap="round" stroke-linejoin="round"/>
<path d="M117.12 255.5C117.12 255.878 117.008 256.247 116.798 256.561C116.588 256.875 116.29 257.12 115.941 257.265C115.592 257.409 115.208 257.447 114.837 257.373C114.467 257.3 114.127 257.118 113.859 256.851C113.592 256.583 113.41 256.243 113.337 255.873C113.263 255.502 113.301 255.118 113.445 254.769C113.59 254.42 113.835 254.122 114.149 253.912C114.463 253.702 114.832 253.59 115.21 253.59C115.461 253.589 115.71 253.637 115.942 253.733C116.175 253.828 116.386 253.969 116.564 254.146C116.741 254.324 116.882 254.535 116.977 254.768C117.073 255 117.121 255.249 117.12 255.5V255.5Z" fill="white" stroke="white" stroke-linecap="round" stroke-linejoin="round"/>
<path d="M130.92 255.5C130.92 255.878 130.808 256.247 130.598 256.561C130.388 256.875 130.09 257.12 129.741 257.265C129.392 257.409 129.008 257.447 128.637 257.373C128.267 257.3 127.927 257.118 127.659 256.851C127.392 256.583 127.21 256.243 127.137 255.873C127.063 255.502 127.101 255.118 127.245 254.769C127.39 254.42 127.635 254.122 127.949 253.912C128.263 253.702 128.632 253.59 129.01 253.59C129.517 253.59 130.002 253.791 130.361 254.149C130.719 254.508 130.92 254.993 130.92 255.5V255.5Z" fill="white" stroke="white" stroke-linecap="round" stroke-linejoin="round"/>
<path d="M144.72 255.5C144.72 255.878 144.608 256.247 144.398 256.561C144.188 256.875 143.89 257.12 143.541 257.265C143.192 257.409 142.808 257.447 142.437 257.373C142.067 257.3 141.727 257.118 141.459 256.851C141.192 256.583 141.01 256.243 140.937 255.873C140.863 255.502 140.901 255.118 141.045 254.769C141.19 254.42 141.435 254.122 141.749 253.912C142.063 253.702 142.432 253.59 142.81 253.59C143.317 253.59 143.802 253.791 144.161 254.149C144.519 254.508 144.72 254.993 144.72 255.5Z" fill="white" stroke="white" stroke-linecap="round" stroke-linejoin="round"/>
<path d="M124.12 262.5C124.12 262.878 124.008 263.247 123.798 263.561C123.588 263.875 123.29 264.12 122.941 264.265C122.592 264.409 122.208 264.447 121.837 264.373C121.467 264.3 121.127 264.118 120.859 263.851C120.592 263.583 120.41 263.243 120.337 262.873C120.263 262.502 120.301 262.118 120.445 261.769C120.59 261.42 120.835 261.122 121.149 260.912C121.463 260.702 121.832 260.59 122.21 260.59C122.461 260.589 122.71 260.637 122.942 260.733C123.175 260.828 123.386 260.969 123.564 261.146C123.741 261.324 123.882 261.535 123.977 261.768C124.073 262 124.121 262.249 124.12 262.5V262.5Z" fill="white" stroke="white" stroke-linecap="round" stroke-linejoin="round"/>
<path d="M137.92 262.5C137.92 262.878 137.808 263.247 137.598 263.561C137.388 263.875 137.09 264.12 136.741 264.265C136.392 264.409 136.008 264.447 135.637 264.373C135.267 264.3 134.927 264.118 134.659 263.851C134.392 263.583 134.21 263.243 134.137 262.873C134.063 262.502 134.101 262.118 134.245 261.769C134.39 261.42 134.635 261.122 134.949 260.912C135.263 260.702 135.632 260.59 136.01 260.59C136.517 260.59 137.002 260.791 137.361 261.149C137.719 261.508 137.92 261.993 137.92 262.5Z" fill="white" stroke="white" stroke-linecap="round" stroke-linejoin="round"/>
<path d="M212.14 246.75C206.32 246.75 201.6 242.62 201.6 236.8C201.599 234.43 202.396 232.13 203.864 230.27C205.332 228.41 207.385 227.099 209.69 226.55C209.401 225.679 209.252 224.768 209.25 223.85C209.256 222.18 209.756 220.549 210.685 219.162C211.615 217.774 212.934 216.692 214.476 216.051C216.018 215.411 217.715 215.239 219.355 215.559C220.994 215.879 222.502 216.676 223.69 217.85V217.85C224.932 215.121 227.07 212.898 229.749 211.552C232.428 210.205 235.487 209.815 238.419 210.447C241.35 211.079 243.977 212.694 245.863 215.025C247.75 217.356 248.783 220.261 248.79 223.26C248.746 224.171 248.649 225.08 248.5 225.98V225.98C251.035 226.542 253.273 228.022 254.784 230.134C256.294 232.245 256.971 234.841 256.685 237.422C256.399 240.003 255.169 242.386 253.231 244.116C251.294 245.845 248.787 246.797 246.19 246.79" stroke="white" stroke-width="3" stroke-linecap="round" stroke-linejoin="round"/>
<path d="M239.91 210.81C241.207 209.336 242.815 208.169 244.619 207.394C246.422 206.618 248.375 206.252 250.337 206.323C252.299 206.395 254.22 206.901 255.963 207.806C257.705 208.711 259.224 209.991 260.411 211.555C261.598 213.119 262.422 214.927 262.824 216.849C263.227 218.77 263.197 220.757 262.738 222.666C262.278 224.574 261.401 226.357 260.168 227.885C258.935 229.413 257.378 230.647 255.61 231.5" stroke="white" stroke-width="3" stroke-linecap="round" stroke-linejoin="round"/>
<path d="M229.16 234.38V259.13" stroke="white" stroke-width="2" stroke-linecap="round" stroke-linejoin="round"/>
<path d="M241.54 246.75H216.79" stroke="white" stroke-width="2" stroke-linecap="round" stroke-linejoin="round"/>
<path d="M218.79 243.17L222.37 246.75L218.79 250.34" stroke="white" stroke-width="2" stroke-linecap="round" stroke-linejoin="round"/>
<path d="M239.54 250.34L235.95 246.75L239.54 243.17" stroke="white" stroke-width="2" stroke-linecap="round" stroke-linejoin="round"/>
<path d="M225.58 257.13L229.16 253.55L232.75 257.13" stroke="white" stroke-width="2" stroke-linecap="round" stroke-linejoin="round"/>
<path d="M232.75 236.38L229.16 239.96L225.58 236.38" stroke="white" stroke-width="2" stroke-linecap="round" stroke-linejoin="round"/>
<path d="M237.91 238L220.41 255.5" stroke="white" stroke-width="2" stroke-linecap="round" stroke-linejoin="round"/>
<path d="M237.91 255.5L220.41 238" stroke="white" stroke-width="2" stroke-linecap="round" stroke-linejoin="round"/>
<path d="M442.41 229.12C444.308 229.509 445.992 230.594 447.132 232.161C448.272 233.728 448.785 235.664 448.571 237.59C448.357 239.516 447.431 241.292 445.974 242.57C444.518 243.849 442.637 244.537 440.7 244.5H415.59C411.3 244.5 407.82 241.45 407.82 237.16C407.823 235.408 408.417 233.709 409.506 232.337C410.595 230.965 412.115 230.001 413.82 229.6C413.597 228.957 413.486 228.281 413.49 227.6C413.488 226.365 413.851 225.158 414.535 224.129C415.218 223.101 416.191 222.298 417.33 221.822C418.47 221.346 419.724 221.218 420.936 221.454C422.148 221.691 423.263 222.281 424.14 223.15C425.056 221.136 426.634 219.497 428.611 218.504C430.587 217.511 432.844 217.224 435.007 217.692C437.169 218.159 439.106 219.352 440.497 221.073C441.887 222.793 442.647 224.938 442.65 227.15C442.618 227.82 442.548 228.488 442.44 229.15L442.41 229.12Z" stroke="white" stroke-width="3" stroke-linecap="round" stroke-linejoin="round"/>
<path d="M445.2 229.5C452.27 229.5 459.01 223.77 459.01 216.69C459.01 216.63 459.01 216.58 459.01 216.51C458.207 217.515 457.209 218.347 456.076 218.956C454.942 219.565 453.697 219.938 452.416 220.052C451.134 220.166 449.843 220.02 448.62 219.621C447.397 219.222 446.267 218.579 445.299 217.732C444.331 216.884 443.545 215.85 442.989 214.69C442.432 213.53 442.116 212.269 442.06 210.984C442.004 209.699 442.209 208.415 442.663 207.212C443.116 206.008 443.81 204.909 444.7 203.98C438.34 204.73 433.4 209.13 433.4 215.69" stroke="white" stroke-width="3" stroke-linecap="round" stroke-linejoin="round"/>
<path d="M416.25 252.5C416.25 252.878 416.138 253.248 415.927 253.562C415.717 253.876 415.418 254.121 415.069 254.266C414.719 254.41 414.334 254.447 413.964 254.373C413.593 254.298 413.253 254.115 412.986 253.847C412.719 253.579 412.538 253.238 412.465 252.866C412.393 252.495 412.432 252.111 412.578 251.762C412.724 251.413 412.971 251.116 413.286 250.907C413.602 250.698 413.972 250.588 414.35 250.59C414.6 250.59 414.848 250.639 415.079 250.736C415.311 250.832 415.52 250.973 415.697 251.15C415.874 251.328 416.013 251.538 416.108 251.77C416.203 252.002 416.251 252.25 416.25 252.5Z" fill="white" stroke="white" stroke-linecap="round" stroke-linejoin="round"/>
<path d="M430.05 252.5C430.05 252.878 429.938 253.247 429.728 253.561C429.518 253.875 429.22 254.12 428.871 254.265C428.522 254.409 428.138 254.447 427.767 254.373C427.397 254.3 427.057 254.118 426.789 253.851C426.522 253.583 426.34 253.243 426.267 252.873C426.193 252.502 426.231 252.118 426.375 251.769C426.52 251.42 426.765 251.122 427.079 250.912C427.393 250.702 427.762 250.59 428.14 250.59C428.391 250.589 428.64 250.637 428.872 250.733C429.105 250.828 429.316 250.969 429.494 251.146C429.671 251.324 429.812 251.535 429.907 251.768C430.003 252 430.051 252.249 430.05 252.5Z" fill="white" stroke="white" stroke-linecap="round" stroke-linejoin="round"/>
<path d="M443.85 252.5C443.85 252.878 443.738 253.247 443.528 253.561C443.318 253.875 443.02 254.12 442.671 254.265C442.322 254.409 441.938 254.447 441.567 254.373C441.197 254.3 440.857 254.118 440.589 253.851C440.322 253.583 440.14 253.243 440.067 252.873C439.993 252.502 440.031 252.118 440.175 251.769C440.32 251.42 440.565 251.122 440.879 250.912C441.193 250.702 441.562 250.59 441.94 250.59C442.191 250.589 442.44 250.637 442.673 250.733C442.905 250.828 443.116 250.969 443.294 251.146C443.471 251.324 443.612 251.535 443.707 251.768C443.803 252 443.851 252.249 443.85 252.5Z" fill="white" stroke="white" stroke-linecap="round" stroke-linejoin="round"/>
<path d="M423.25 259.5C423.25 259.878 423.138 260.248 422.927 260.562C422.717 260.876 422.418 261.121 422.069 261.266C421.719 261.41 421.334 261.447 420.964 261.373C420.593 261.298 420.253 261.115 419.986 260.847C419.719 260.579 419.538 260.238 419.465 259.866C419.393 259.495 419.432 259.111 419.578 258.762C419.724 258.413 419.971 258.116 420.286 257.907C420.602 257.698 420.972 257.588 421.35 257.59C421.6 257.59 421.848 257.639 422.079 257.736C422.311 257.832 422.52 257.973 422.697 258.15C422.874 258.328 423.013 258.538 423.108 258.77C423.203 259.002 423.251 259.25 423.25 259.5V259.5Z" fill="white" stroke="white" stroke-linecap="round" stroke-linejoin="round"/>
<path d="M437.05 259.5C437.05 259.878 436.938 260.247 436.728 260.561C436.518 260.875 436.22 261.12 435.871 261.265C435.522 261.409 435.138 261.447 434.767 261.373C434.397 261.3 434.057 261.118 433.789 260.851C433.522 260.583 433.34 260.243 433.267 259.873C433.193 259.502 433.231 259.118 433.375 258.769C433.52 258.42 433.765 258.122 434.079 257.912C434.393 257.702 434.762 257.59 435.14 257.59C435.391 257.589 435.64 257.637 435.872 257.733C436.105 257.828 436.316 257.969 436.494 258.146C436.671 258.324 436.812 258.535 436.907 258.768C437.003 259 437.051 259.249 437.05 259.5V259.5Z" fill="white" stroke="white" stroke-linecap="round" stroke-linejoin="round"/>
<path d="M542.44 229.31C544.305 229.73 545.95 230.824 547.06 232.381C548.17 233.938 548.666 235.85 548.454 237.75C548.243 239.651 547.338 241.406 545.913 242.681C544.487 243.956 542.642 244.661 540.73 244.66H515.62C511.33 244.66 507.85 241.61 507.85 237.32C507.853 235.568 508.447 233.869 509.536 232.497C510.625 231.125 512.145 230.161 513.85 229.76C513.532 228.819 513.443 227.816 513.59 226.834C513.738 225.852 514.117 224.919 514.696 224.112C515.276 223.306 516.04 222.649 516.924 222.196C517.808 221.744 518.787 221.509 519.78 221.51C521.425 221.509 523.004 222.16 524.17 223.32V223.32C525.086 221.306 526.664 219.667 528.641 218.674C530.617 217.681 532.874 217.394 535.037 217.862C537.199 218.329 539.136 219.522 540.527 221.243C541.917 222.963 542.677 225.108 542.68 227.32C542.648 227.99 542.578 228.658 542.47 229.32L542.44 229.31Z" stroke="white" stroke-width="3" stroke-linecap="round" stroke-linejoin="round"/>
<path d="M545.23 229.72C552.31 229.72 559.04 223.98 559.04 216.91C559.04 216.85 559.04 216.79 559.04 216.73C558.237 217.735 557.239 218.567 556.106 219.176C554.972 219.785 553.727 220.158 552.446 220.272C551.164 220.386 549.873 220.24 548.65 219.841C547.427 219.442 546.297 218.799 545.329 217.952C544.361 217.104 543.575 216.07 543.019 214.91C542.462 213.75 542.146 212.489 542.09 211.204C542.034 209.919 542.239 208.635 542.693 207.432C543.146 206.228 543.839 205.129 544.73 204.2C538.37 204.95 533.44 209.35 533.44 215.91" stroke="white" stroke-width="3" stroke-linecap="round" stroke-linejoin="round"/>
<path d="M517.19 250.97C518.755 252.434 519.753 254.403 520.01 256.53C520.01 257.278 519.713 257.995 519.184 258.524C518.655 259.053 517.938 259.35 517.19 259.35C516.442 259.35 515.725 259.053 515.196 258.524C514.667 257.995 514.37 257.278 514.37 256.53C514.627 254.403 515.625 252.434 517.19 250.97V250.97Z" fill="white"/>
<path d="M538.94 250.97C540.505 252.434 541.503 254.403 541.76 256.53C541.76 257.278 541.463 257.995 540.934 258.524C540.405 259.053 539.688 259.35 538.94 259.35C538.192 259.35 537.475 259.053 536.946 258.524C536.417 257.995 536.12 257.278 536.12 256.53C536.377 254.403 537.375 252.434 538.94 250.97V250.97Z" fill="white"/>
<path d="M528.06 253.61C529.625 255.078 530.624 257.05 530.88 259.18C530.837 259.898 530.522 260.572 529.999 261.065C529.476 261.558 528.784 261.832 528.065 261.832C527.346 261.832 526.654 261.558 526.131 261.065C525.608 260.572 525.293 259.898 525.25 259.18C525.499 257.05 526.495 255.076 528.06 253.61V253.61Z" fill="white"/>
<path d="M41.17 229.5C42.9935 229.952 44.5912 231.049 45.6668 232.589C46.7423 234.13 47.2227 236.008 47.0187 237.875C46.8148 239.742 45.9403 241.472 44.5576 242.744C43.175 244.016 41.3779 244.743 39.5 244.79H14.35C10.06 244.79 6.58 241.74 6.58 237.45C6.58307 235.698 7.17712 233.999 8.266 232.627C9.35488 231.255 10.8749 230.291 12.58 229.89C12.171 228.567 12.2119 227.146 12.6965 225.849C13.1811 224.553 14.0819 223.453 15.2581 222.722C16.4343 221.992 17.8194 221.672 19.1967 221.813C20.574 221.954 21.8658 222.547 22.87 223.5C23.7822 221.483 25.3584 219.839 27.3357 218.843C29.3129 217.847 31.5718 217.559 33.7357 218.027C35.8996 218.495 37.8377 219.691 39.227 221.414C40.6162 223.138 41.3726 225.286 41.37 227.5C41.3393 228.17 41.2726 228.837 41.17 229.5Z" stroke="white" stroke-width="3" stroke-linecap="round" stroke-linejoin="round"/>
<path d="M43.96 229.85C51.03 229.85 57.77 224.12 57.77 217.05C57.77 216.99 57.77 216.93 57.77 216.87C56.9801 217.913 55.9838 218.781 54.8433 219.422C53.7028 220.062 52.4425 220.461 51.1411 220.593C49.8397 220.725 48.5251 220.587 47.2793 220.188C46.0335 219.789 44.8833 219.138 43.9003 218.275C42.9174 217.412 42.1229 216.355 41.5664 215.172C41.0098 213.988 40.7032 212.702 40.6656 211.395C40.6281 210.087 40.8604 208.786 41.348 207.572C41.8357 206.358 42.5682 205.258 43.5 204.34C37.14 205.09 32.2 209.49 32.2 216.05" stroke="white" stroke-width="3" stroke-linecap="round" stroke-linejoin="round"/>
<path d="M23.35 245.43L17.09 253.24L23.1 253.32L16.16 262.47L36.76 251.07L29.53 251.03L33.35 245.43H23.35Z" fill="white" stroke="white" stroke-linecap="round" stroke-linejoin="round"/>
<path d="M44.92 352.8C46.9371 350.383 48.2233 347.44 48.6278 344.318C49.0322 341.196 48.5383 338.023 47.2038 335.171C45.8693 332.32 43.7495 329.908 41.093 328.218C38.4365 326.528 35.3534 325.63 32.205 325.63C29.0566 325.63 25.9734 326.528 23.317 328.218C20.6605 329.908 18.5407 332.32 17.2062 335.171C15.8717 338.023 15.3777 341.196 15.7822 344.318C16.1867 347.44 17.4729 350.383 19.49 352.8" stroke="white" stroke-width="3" stroke-linecap="round" stroke-linejoin="round"/>
<path d="M32.21 318.62V313.41" stroke="white" stroke-width="3" stroke-linecap="round" stroke-linejoin="round"/>
<path d="M2.5 342.19H7.71" stroke="white" stroke-width="3" stroke-linecap="round" stroke-linejoin="round"/>
<path d="M10.78 320.77L14.88 324.87" stroke="white" stroke-width="3" stroke-linecap="round" stroke-linejoin="round"/>
<path d="M53.63 320.77L49.52 324.87" stroke="white" stroke-width="3" stroke-linecap="round" stroke-linejoin="round"/>
<path d="M49.53 324.87L53.63 320.77" stroke="white" stroke-width="3" stroke-linecap="round" stroke-linejoin="round"/>
<path d="M10.73 320.82L14.83 324.92" stroke="white" stroke-width="3" stroke-linecap="round" stroke-linejoin="round"/>
<path d="M32.15 312.53V317.74" stroke="white" stroke-width="3" stroke-linecap="round" stroke-linejoin="round"/>
<path d="M7.66 342.24H2.44" stroke="white" stroke-width="3" stroke-linecap="round" stroke-linejoin="round"/>
<path d="M61.86 342.24H56.65" stroke="white" stroke-width="3" stroke-linecap="round" stroke-linejoin="round"/>
<path d="M5.05 360.79H59.25" stroke="white" stroke-width="3" stroke-linecap="round" stroke-linejoin="round"/>
<path d="M125.25 322.5C128.193 320.978 131.524 320.373 134.814 320.764C138.105 321.155 141.202 322.524 143.705 324.694C146.209 326.864 148.004 329.735 148.859 332.936C149.714 336.137 149.589 339.521 148.5 342.65" stroke="white" stroke-width="3" stroke-linecap="round" stroke-linejoin="round"/>
<path d="M253.5 324.13C256.288 324.754 258.748 326.385 260.408 328.711C262.068 331.036 262.812 333.893 262.496 336.733C262.18 339.572 260.827 342.196 258.696 344.1C256.566 346.004 253.807 347.054 250.95 347.05H213.41C207.01 347.05 201.81 342.5 201.81 336.05C201.81 333.441 202.69 330.907 204.306 328.859C205.923 326.811 208.182 325.367 210.72 324.76C210.397 323.793 210.231 322.78 210.23 321.76C210.232 319.918 210.779 318.118 211.801 316.585C212.823 315.053 214.275 313.856 215.974 313.146C217.674 312.435 219.545 312.243 221.354 312.592C223.162 312.942 224.827 313.818 226.14 315.11V315.11C227.509 312.101 229.867 309.653 232.822 308.17C235.776 306.688 239.149 306.262 242.38 306.964C245.61 307.665 248.503 309.451 250.577 312.025C252.651 314.598 253.781 317.805 253.78 321.11C253.734 322.115 253.63 323.117 253.47 324.11L253.5 324.13Z" stroke="white" stroke-width="3" stroke-linecap="round" stroke-linejoin="round"/>
<path d="M216.79 354.21L215.79 361.29" stroke="white" stroke-width="3" stroke-linecap="round" stroke-linejoin="round"/>
<path d="M227.16 354.21L225.16 368.29" stroke="white" stroke-width="3" stroke-linecap="round" stroke-linejoin="round"/>
<path d="M237.91 354.21L235.91 368.29" stroke="white" stroke-width="3" stroke-linecap="round" stroke-linejoin="round"/>
<path d="M248.28 354.21L247.28 361.29" stroke="white" stroke-width="3" stroke-linecap="round" stroke-linejoin="round"/>
<path d="M516.24 353.79L515.47 359.29" stroke="white" stroke-width="3" stroke-linecap="round" stroke-linejoin="round"/>
<path d="M524.29 353.79L522.74 364.71" stroke="white" stroke-width="3" stroke-linecap="round" stroke-linejoin="round"/>
<path d="M532.62 353.79L531.07 364.71" stroke="white" stroke-width="3" stroke-linecap="round" stroke-linejoin="round"/>
<path d="M540.66 353.79L539.88 359.29" stroke="white" stroke-width="3" stroke-linecap="round" stroke-linejoin="round"/>
<path d="M412.73 353.79L411.95 359.29" stroke="white" stroke-width="3" stroke-linecap="round" stroke-linejoin="round"/>
<path d="M420.77 353.79L419.22 364.71" stroke="white" stroke-width="3" stroke-linecap="round" stroke-linejoin="round"/>
<path d="M429.1 353.79L427.55 364.71" stroke="white" stroke-width="3" stroke-linecap="round" stroke-linejoin="round"/>
<path d="M437.15 353.79L436.37 359.29" stroke="white" stroke-width="3" stroke-linecap="round" stroke-linejoin="round"/>
<path d="M316.77 353.79L315.99 359.29" stroke="white" stroke-width="3" stroke-linecap="round" stroke-linejoin="round"/>
<path d="M324.81 353.79L323.26 364.71" stroke="white" stroke-width="3" stroke-linecap="round" stroke-linejoin="round"/>
<path d="M333.14 353.79L331.59 364.71" stroke="white" stroke-width="3" stroke-linecap="round" stroke-linejoin="round"/>
<path d="M341.19 353.79L340.41 359.29" stroke="white" stroke-width="3" stroke-linecap="round" stroke-linejoin="round"/>
<path d="M348.35 326.25C350.875 326.822 353.101 328.304 354.602 330.412C356.104 332.521 356.776 335.109 356.49 337.682C356.204 340.255 354.981 342.633 353.053 344.361C351.126 346.089 348.629 347.046 346.04 347.05H311.99C306.17 347.05 301.45 342.92 301.45 337.1C301.446 334.736 302.238 332.439 303.699 330.58C305.159 328.721 307.202 327.407 309.5 326.85C309.206 325.98 309.057 325.068 309.06 324.15C309.066 322.48 309.566 320.849 310.495 319.462C311.425 318.074 312.744 316.992 314.286 316.351C315.828 315.711 317.526 315.539 319.165 315.859C320.804 316.179 322.312 316.976 323.5 318.15V318.15C324.722 315.398 326.853 313.15 329.535 311.782C332.218 310.414 335.289 310.01 338.234 310.637C341.179 311.264 343.819 312.884 345.712 315.226C347.605 317.568 348.635 320.489 348.63 323.5C348.588 324.408 348.494 325.313 348.35 326.21V326.25Z" stroke="white" stroke-width="3" stroke-linecap="round" stroke-linejoin="round"/>
<path d="M339.76 311.11C341.063 309.656 342.672 308.507 344.47 307.747C346.269 306.987 348.213 306.634 350.164 306.713C352.115 306.792 354.025 307.301 355.756 308.204C357.488 309.108 358.998 310.382 360.179 311.937C361.36 313.492 362.183 315.289 362.589 317.199C362.995 319.109 362.973 321.085 362.526 322.986C362.079 324.887 361.217 326.665 360.003 328.194C358.788 329.723 357.25 330.965 355.5 331.83" stroke="white" stroke-width="3" stroke-linecap="round" stroke-linejoin="round"/>
<path d="M440.91 330.12C442.937 330.627 444.711 331.852 445.904 333.568C447.096 335.284 447.625 337.374 447.393 339.451C447.161 341.527 446.183 343.449 444.642 344.86C443.1 346.27 441.099 347.073 439.01 347.12H411.13C406.37 347.12 402.51 343.73 402.51 338.97C402.509 337.031 403.162 335.148 404.363 333.625C405.564 332.103 407.244 331.03 409.13 330.58C408.791 329.536 408.703 328.427 408.872 327.342C409.041 326.257 409.463 325.227 410.103 324.336C410.744 323.444 411.585 322.716 412.559 322.209C413.533 321.703 414.612 321.432 415.71 321.42C417.537 321.414 419.292 322.133 420.59 323.42V323.42C421.609 321.187 423.36 319.368 425.554 318.267C427.748 317.167 430.253 316.849 432.652 317.367C435.052 317.886 437.202 319.209 438.746 321.118C440.29 323.026 441.134 325.405 441.14 327.86C441.105 328.6 441.028 329.338 440.91 330.07V330.12Z" stroke="white" stroke-width="3" stroke-linecap="round" stroke-linejoin="round"/>
<path d="M433.87 317.73C434.941 316.545 436.26 315.611 437.733 314.995C439.206 314.378 440.798 314.095 442.393 314.165C443.989 314.234 445.549 314.655 446.963 315.397C448.377 316.14 449.61 317.185 450.573 318.459C451.537 319.732 452.207 321.203 452.537 322.765C452.866 324.328 452.847 325.944 452.48 327.498C452.113 329.053 451.407 330.507 450.413 331.757C449.419 333.007 448.162 334.022 446.73 334.73" stroke="white" stroke-width="3" stroke-linecap="round" stroke-linejoin="round"/>
<path d="M441.99 306.79L441.96 302.57" stroke="white" stroke-width="3" stroke-linecap="round" stroke-linejoin="round"/>
<path d="M459.75 326.6L463.97 326.57" stroke="white" stroke-width="3" stroke-linecap="round" stroke-linejoin="round"/>
<path d="M455.42 312.15L458.38 309.16" stroke="white" stroke-width="3" stroke-linecap="round" stroke-linejoin="round"/>
<path d="M427.51 312.15L424.55 309.16" stroke="white" stroke-width="3" stroke-linecap="round" stroke-linejoin="round"/>
<path d="M456.72 341.84L453.77 338.84" stroke="white" stroke-width="3" stroke-linecap="round" stroke-linejoin="round"/>
<path d="M542.42 331.5C544.285 331.92 545.93 333.014 547.04 334.571C548.15 336.128 548.646 338.04 548.434 339.94C548.223 341.841 547.318 343.596 545.893 344.871C544.467 346.146 542.622 346.851 540.71 346.85H515.6C511.31 346.85 507.83 343.8 507.83 339.51C507.833 337.758 508.427 336.059 509.516 334.687C510.605 333.315 512.125 332.351 513.83 331.95C513.388 330.621 513.406 329.183 513.879 327.865C514.353 326.548 515.255 325.427 516.442 324.683C517.628 323.94 519.03 323.616 520.422 323.764C521.814 323.912 523.117 324.523 524.12 325.5V325.5C525.036 323.486 526.614 321.847 528.591 320.854C530.567 319.861 532.824 319.574 534.987 320.042C537.149 320.509 539.086 321.702 540.477 323.423C541.867 325.143 542.627 327.288 542.63 329.5C542.598 330.17 542.528 330.838 542.42 331.5V331.5Z" stroke="white" stroke-width="3" stroke-linecap="round" stroke-linejoin="round"/>
<path d="M545.21 331.86C552.29 331.86 559.02 326.13 559.02 319.05C559.02 318.99 559.02 318.94 559.02 318.88C558.213 319.873 557.213 320.693 556.082 321.291C554.951 321.889 553.71 322.253 552.435 322.36C551.16 322.468 549.876 322.318 548.66 321.918C547.444 321.518 546.322 320.878 545.359 320.034C544.397 319.191 543.614 318.162 543.058 317.009C542.502 315.856 542.185 314.603 542.124 313.325C542.063 312.047 542.261 310.769 542.706 309.569C543.15 308.369 543.832 307.271 544.71 306.34C538.35 307.09 533.42 311.49 533.42 318.05" stroke="white" stroke-width="3" stroke-linecap="round" stroke-linejoin="round"/>
<path d="M143.12 343.5C139.586 343.507 136.127 342.477 133.172 340.538C130.217 338.599 127.895 335.836 126.494 332.591C125.094 329.346 124.676 325.761 125.292 322.281C125.908 318.801 127.531 315.577 129.96 313.01C125.303 313.565 120.907 315.454 117.298 318.45C113.69 321.445 111.025 325.42 109.623 329.895C108.221 334.37 108.142 339.155 109.396 343.674C110.649 348.192 113.182 352.253 116.69 355.366C120.197 358.478 124.529 360.511 129.165 361.22C133.801 361.928 138.542 361.282 142.819 359.358C147.096 357.435 150.726 354.316 153.272 350.378C155.818 346.44 157.172 341.85 157.17 337.16C157.17 337.05 157.17 336.94 157.17 336.82C155.473 338.91 153.332 340.594 150.901 341.749C148.47 342.905 145.812 343.503 143.12 343.5V343.5Z" stroke="white" stroke-width="3" stroke-linecap="round" stroke-linejoin="round"/>
<path d="M7.06 145.73H57.59" stroke="white" stroke-width="3" stroke-linecap="round" stroke-linejoin="round"/>
<path d="M3.87 139.6H60.48" stroke="white" stroke-width="3" stroke-linecap="round" stroke-linejoin="round"/>
<path d="M5.92 133.46H58.81" stroke="white" stroke-width="3" stroke-linecap="round" stroke-linejoin="round"/>
<path d="M10.97 127.33H54.43" stroke="white" stroke-width="3" stroke-linecap="round" stroke-linejoin="round"/>
<path d="M32.69 115.06H48.25" stroke="white" stroke-width="3" stroke-linecap="round" stroke-linejoin="round"/>
<path d="M14.99 120.92H23.65" stroke="white" stroke-width="3" stroke-linecap="round" stroke-linejoin="round"/>
<path d="M29.69 121.06H51.25" stroke="white" stroke-width="3" stroke-linecap="round" stroke-linejoin="round"/>
<path d="M12.06 151.73H53.59" stroke="white" stroke-width="3" stroke-linecap="round" stroke-linejoin="round"/>
</svg>
